<?xml version="1.0" standalone="no"?>
<!DOCTYPE svg PUBLIC "-//W3C//DTD SVG 20010904//EN"
 "http://www.w3.org/TR/2001/REC-SVG-20010904/DTD/svg10.dtd">
<svg version="1.0" xmlns="http://www.w3.org/2000/svg"
 width="558.000000pt" height="558.000000pt" viewBox="0 0 558.000000 558.000000"
 preserveAspectRatio="xMidYMid meet">
<metadata>
Created by potrace 1.11, written by Peter Selinger 2001-2013
</metadata>
<g transform="translate(0.000000,558.000000) scale(0.100000,-0.100000)"
fill="#000000" stroke="none">
<path d="M616 5418 c-51 -81 -94 -201 -100 -277 -1 -9 -18 -32 -38 -52 -45
-44 -68 -116 -72 -226 -2 -49 -9 -88 -18 -103 -27 -42 -40 -98 -42 -175 -1
-40 -7 -79 -13 -86 -18 -23 -30 -79 -32 -157 -1 -40 -9 -92 -17 -114 -17 -48
-18 -114 -4 -189 7 -38 7 -63 -1 -88 -15 -44 -14 -167 1 -206 6 -17 8 -45 4
-70 -13 -71 -11 -99 7 -150 9 -27 18 -72 18 -99 0 -27 7 -70 15 -95 8 -25 14
-69 14 -98 -1 -40 6 -67 30 -115 18 -35 35 -79 38 -98 4 -19 18 -58 31 -87 12
-28 23 -60 23 -70 0 -28 47 -123 65 -129 8 -3 20 -25 26 -47 7 -26 27 -58 55
-85 23 -24 48 -58 54 -76 11 -34 75 -106 94 -106 6 0 18 -18 28 -40 11 -28 32
-49 70 -73 29 -19 64 -47 78 -62 14 -15 41 -35 60 -45 19 -10 49 -30 65 -45
42 -37 96 -63 147 -71 23 -4 61 -17 83 -30 135 -77 390 -58 583 42 34 18 62
29 62 25 0 -23 -34 -98 -64 -144 -34 -50 -34 -52 -14 -57 18 -5 10 -16 -63
-89 -53 -53 -75 -81 -61 -77 12 3 31 9 42 12 32 9 24 -22 -16 -60 -39 -37 -36
-46 25 -55 30 -5 33 -8 20 -21 -33 -36 -60 -83 -53 -90 5 -5 19 -10 32 -12
l24 -3 -33 -45 c-18 -24 -44 -71 -60 -105 -26 -58 -77 -142 -118 -195 -10 -14
-35 -34 -54 -45 l-35 -18 -45 42 c-120 113 -173 130 -240 78 -36 -27 -36 -27
-47 -7 -19 36 -161 203 -229 270 -72 71 -229 180 -248 173 -7 -3 -1 -19 18
-46 30 -43 69 -142 69 -176 0 -15 -6 -18 -32 -16 -59 5 -208 -28 -208 -47 0
-4 28 -21 62 -38 115 -57 149 -94 327 -349 40 -57 72 -93 86 -97 28 -7 78 16
126 55 l34 29 37 -30 c36 -28 37 -32 37 -89 -1 -61 17 -99 48 -99 7 0 22 -9
32 -19 11 -11 33 -27 48 -36 15 -8 40 -25 55 -37 26 -21 30 -21 75 -7 l48 15
75 -45 c81 -48 271 -140 334 -162 21 -8 40 -19 43 -25 2 -6 -28 -77 -66 -157
-39 -80 -71 -147 -71 -149 0 -9 139 12 171 25 19 8 50 27 68 43 26 21 33 24
28 11 -4 -10 -7 -23 -7 -27 0 -5 -20 -33 -44 -63 l-43 -53 60 8 c67 9 159 47
196 81 l23 22 -26 -52 c-14 -29 -26 -55 -26 -58 0 -4 24 -3 53 0 70 9 146 47
198 98 36 36 41 39 34 17 -12 -44 -47 -111 -72 -141 l-25 -29 29 -1 c84 -3
158 17 213 59 43 32 57 49 74 86 l14 30 15 -30 c24 -45 76 -93 126 -116 40
-18 127 -36 159 -32 6 1 17 2 22 3 6 0 2 11 -9 22 -20 22 -62 104 -76 149 -6
21 -1 18 36 -19 24 -24 66 -55 94 -67 49 -23 155 -43 155 -30 0 4 -12 29 -26
57 l-25 51 33 -25 c47 -36 116 -64 186 -74 l61 -10 -29 34 c-28 31 -70 103
-70 119 0 4 10 -1 23 -12 36 -33 69 -50 119 -62 53 -13 131 -16 126 -4 -1 4
-31 64 -65 134 -35 70 -64 136 -65 147 -3 18 15 29 111 70 62 27 164 79 226
115 l113 65 45 -14 c39 -12 47 -11 69 3 14 10 44 29 67 45 22 15 41 32 41 37
0 6 8 10 18 10 10 0 28 9 40 20 18 17 22 32 22 78 0 53 3 59 37 89 36 32 37
33 57 14 41 -36 101 -71 124 -71 29 0 52 26 149 170 97 144 186 234 276 278
37 18 67 36 67 41 0 13 -113 44 -175 46 -33 2 -63 4 -67 4 -17 3 32 140 67
185 23 31 32 56 19 56 -21 0 -194 -129 -260 -195 -76 -75 -211 -235 -221 -262
-4 -9 -15 -5 -36 11 -70 53 -114 43 -220 -52 l-69 -61 -38 20 c-34 18 -90 76
-90 94 0 4 -8 19 -19 33 -30 43 -61 102 -61 116 0 7 -20 43 -44 80 -31 46 -41
66 -30 67 27 3 32 4 39 11 4 4 -9 30 -29 58 -31 44 -34 50 -17 50 11 0 32 5
47 10 l27 10 -37 36 c-37 36 -49 71 -20 60 69 -26 66 -18 -16 65 -72 72 -80
84 -62 87 26 4 28 15 5 33 -17 14 -83 148 -83 169 0 6 9 5 23 -4 32 -22 154
-71 209 -84 161 -40 318 -31 415 24 23 13 53 24 67 24 37 0 127 42 161 76 17
16 42 35 57 41 16 7 47 30 70 51 24 21 62 50 85 65 38 24 79 78 68 89 -2 2 10
12 28 21 34 19 79 76 92 116 4 13 22 37 41 53 33 29 64 79 64 103 0 7 15 29
34 49 31 34 56 92 56 129 0 9 9 32 19 50 10 19 25 60 32 93 7 32 18 66 24 74
27 35 46 94 46 143 0 28 7 75 15 103 8 28 15 73 16 100 0 26 6 62 13 78 19 46
24 103 13 144 -7 26 -7 52 2 92 15 68 16 142 1 195 -8 29 -8 57 0 103 13 71 8
152 -11 197 -7 17 -13 69 -14 116 -2 69 -7 95 -25 124 -15 26 -20 49 -18 78 5
53 -16 157 -39 192 -12 18 -18 52 -21 108 -4 108 -25 177 -67 225 -11 12 -24
22 -31 22 -6 0 -12 15 -13 33 -4 57 -31 145 -63 209 -32 63 -68 118 -78 118
-3 0 -6 -82 -6 -182 0 -194 -10 -269 -51 -408 -44 -146 -132 -283 -280 -436
-124 -127 -232 -190 -512 -299 -92 -36 -185 -73 -207 -83 -53 -23 -104 -77
-162 -170 -83 -135 -122 -183 -167 -203 -74 -33 -199 -19 -189 21 3 11 2 28
-3 37 -4 10 -9 29 -10 43 -2 14 -8 26 -14 28 -14 5 -1 53 21 78 27 29 25 31
-25 28 -30 -2 -54 4 -77 18 l-34 21 30 9 c42 13 75 30 75 38 0 4 -18 10 -39
14 -22 3 -53 17 -68 30 l-28 24 37 7 c20 4 47 17 59 28 l23 22 -45 6 c-52 8
-80 23 -99 52 -11 19 -10 19 18 14 41 -8 94 8 122 38 l24 25 -35 -4 c-72 -7
-130 32 -148 102 -5 20 -12 69 -16 107 -14 150 -22 184 -51 216 -13 14 -12 18
8 31 23 15 74 98 60 98 -4 0 -18 -9 -32 -20 -14 -11 -32 -20 -40 -20 -9 1 -3
8 12 17 29 18 47 52 52 99 6 46 -5 49 -28 9 -11 -21 -32 -45 -46 -54 l-25 -16
23 29 c19 25 23 41 21 93 -1 35 -6 66 -11 69 -4 3 -6 10 -3 15 4 5 2 9 -3 9
-5 0 -12 -16 -15 -35 -9 -54 -42 -93 -90 -106 -24 -7 -94 -11 -162 -9 -255 5
-273 2 -326 -51 -31 -31 -42 -14 -35 49 6 51 5 54 -11 41 -26 -20 -58 -62 -55
-71 3 -12 -16 -10 -23 2 -4 6 -20 9 -36 8 -23 -2 -28 -6 -23 -20 4 -14 0 -18
-18 -18 -36 0 -68 -11 -62 -21 3 -5 16 -9 29 -9 35 0 39 -17 7 -28 -15 -5 -38
-19 -52 -30 l-25 -21 52 -1 c28 0 55 -4 58 -10 3 -5 1 -10 -6 -10 -25 0 -171
-94 -195 -126 -27 -35 -53 -147 -41 -178 6 -16 10 -15 30 10 58 75 125 107
232 110 105 3 140 -3 123 -23 -19 -24 -85 -53 -118 -53 -17 0 -49 9 -71 21
l-41 20 7 -23 c4 -13 12 -28 17 -35 7 -8 3 -10 -13 -6 -19 5 -21 3 -15 -13 38
-99 117 -127 242 -83 66 22 110 27 125 12 16 -16 20 -56 8 -84 -10 -27 -65
-59 -99 -59 -32 0 -32 -18 -1 -36 17 -10 28 -21 25 -25 -2 -4 -26 -12 -54 -19
-27 -7 -50 -16 -50 -20 0 -4 19 -17 43 -28 l42 -20 -37 -16 c-21 -9 -50 -16
-65 -16 -25 0 -26 -1 -12 -16 9 -8 33 -21 53 -28 l36 -13 -21 -19 c-15 -14
-36 -19 -75 -19 -56 0 -64 -5 -40 -24 15 -13 19 -69 6 -86 -8 -10 -24 -79 -25
-105 0 -19 -66 -38 -134 -39 -106 -2 -150 35 -266 222 -81 131 -100 146 -297
222 -335 131 -458 200 -581 329 -183 189 -255 313 -308 531 -19 77 -22 120
-23 292 -1 112 -4 203 -9 203 -4 0 -22 -24 -41 -52z m1729 -3785 c-4 -10 -8
-62 -10 -115 -4 -103 -12 -131 -167 -606 l-53 -163 -138 68 c-92 46 -137 73
-135 83 1 8 -2 31 -7 50 -5 19 -8 41 -6 47 4 24 -18 50 -46 56 -15 3 -33 15
-40 25 -10 17 -8 25 13 53 13 18 24 40 24 48 1 24 209 232 268 268 35 21 52
27 52 18 0 -32 20 -21 56 30 l37 55 25 -35 c24 -33 42 -38 42 -12 0 33 24 89
49 116 32 35 47 40 36 14z m926 -12 c24 -26 49 -84 49 -118 0 -27 21 -21 44
13 l24 36 38 -57 c33 -48 40 -54 50 -41 12 17 34 22 34 7 0 -5 21 -19 46 -31
25 -13 62 -40 82 -62 20 -22 65 -69 99 -105 33 -35 64 -76 68 -91 4 -15 13
-35 22 -44 23 -25 12 -51 -29 -70 -35 -17 -60 -59 -44 -75 3 -3 0 -13 -6 -21
-7 -8 -11 -26 -10 -42 1 -15 -4 -33 -12 -39 -24 -20 -250 -129 -258 -125 -6 4
-51 141 -189 569 -22 69 -30 116 -33 198 -3 59 -8 112 -11 117 -13 21 9 9 36
-19z"/>
</g>
</svg>
